ply
format ascii 1.0
element vertex 8
property float32 x
property float32 y
property float32 z
property float32 nx
property float32 ny
property float32 nz
property float32 u
property float32 v
property uint8 red
property uint8 green
property uint8 blue
element face 12
property list uint8 int32 vertex_index
end_header
0 0 0	-1 -1 -1	0 0	0 0 0
0 0 1	1 1 -1		0 1	0 0 255
0 1 1 	-1 1 1 		1 1	0 255 255
0 1 0 	1 -1 1	 	1 0 	0 255 0
1 0 0 	1 -1 -1		0 0 	255 0 0
1 0 1 	-1 1 -1		0 1	255 0 255
1 1 1 	-1 -1 -1	1 1 	255 255 255
1 1 0 	1 1 -1		1 0	255 255 0
3 0 1 3
3 1 2 3
3 7 6 4
3 6 5 4
3 0 4 1
3 4 5 1
3 1 5 2
3 5 6 2
3 2 6 3
3 6 7 3
3 3 7 0
3 7 4 0

